<?xml version="1.0" encoding="UTF-8"?>
<svg width="375px" height="349px" viewBox="0 0 375 349" version="1.1" xmlns="http://www.w3.org/2000/svg" xmlns:xlink="http://www.w3.org/1999/xlink">
    <title>santa-cruz-skateboarding</title>
    <g id="santa-cruz-skateboarding" stroke="none" stroke-width="1" fill="none" fill-rule="evenodd">
        <path d="M361.998,167.5 C361.998,257.799 288.797,331 198.498,331 C108.199,331 34.998,257.799 34.998,167.5 C34.998,77.201 108.199,4 198.498,4 C288.797,4 361.998,77.201 361.998,167.5" id="Fill-1" fill="#D8232A"></path>
        <path d="M361.998,167.5 C361.998,257.799 288.797,331 198.498,331 C108.199,331 34.998,257.799 34.998,167.5 C34.998,77.201 108.199,4 198.498,4 C288.797,4 361.998,77.201 361.998,167.5 Z" id="Stroke-2" stroke="#1A1919" stroke-width="5"></path>
        <path d="M133.277,300.218 C133.021,299.614 132.576,299.071 131.979,298.765 C131.53,298.534 130.798,298.489 130.53,299.012 C130.249,299.56 130.8,300.11 131.153,300.465 L131.68,300.971 C132.789,302.028 133.458,303.206 132.678,304.726 C132.199,305.659 131.482,306.503 130.409,306.754 C129.355,306.999 128.237,306.756 127.291,306.27 C126.108,305.662 125.155,304.67 124.541,303.505 L126.597,302.074 C126.932,302.923 127.431,303.729 128.265,304.158 C128.838,304.452 129.595,304.479 129.934,303.819 C130.285,303.135 129.448,302.405 129.002,301.987 C127.694,300.766 126.89,299.85 127.824,298.031 C128.802,296.126 130.798,295.578 132.679,296.543 C133.625,297.029 134.629,297.923 135.221,298.824 L133.277,300.218" id="Fill-4" fill="#1A1919"></path>
        <polyline id="Fill-5" fill="#1A1919" points="152.542 305.185 155.756 306.297 150.153 309.646 152.662 316.396 149.302 315.232 147.452 309.748 147.425 309.739 145.928 314.065 143.335 313.168 146.787 303.193 149.38 304.09 147.956 308.204 147.983 308.214 152.542 305.185"></polyline>
        <path d="M170.978,313.313 L170.951,313.309 L169.217,316.402 L171.46,316.823 L170.978,313.313 Z M168.087,318.328 L167.033,319.997 L164.17,319.46 L170.106,309.831 L173.052,310.383 L175.016,321.492 L172.14,320.953 L171.803,319.024 L168.087,318.328 L168.087,318.328 Z" id="Fill-6" fill="#1A1919"></path>
        <polyline id="Fill-7" fill="#1A1919" points="191.137 322.994 188.396 322.842 188.854 314.623 186.59 314.497 186.72 312.177 193.987 312.582 193.858 314.901 191.594 314.775 191.137 322.994"></polyline>
        <polyline id="Fill-8" fill="#1A1919" points="208.492 314.594 208.613 316.353 211.699 316.14 211.858 318.458 208.773 318.67 208.898 320.485 212.151 320.261 212.311 322.579 206.321 322.991 205.597 312.464 211.586 312.052 211.746 314.369 208.492 314.594"></polyline>
        <path d="M228.165,318.197 L228.508,318.127 C229.304,317.965 230.656,317.732 230.425,316.594 C230.171,315.346 228.865,315.74 227.987,315.919 L227.713,315.975 L228.165,318.197 Z M227.306,313.972 L227.607,313.91 C228.32,313.766 229.036,313.491 228.857,312.613 C228.665,311.666 227.816,311.782 227.09,311.93 L226.897,311.969 L227.306,313.972 Z M225.896,320.802 L223.79,310.459 L227.631,309.677 C229.469,309.303 230.849,309.765 231.251,311.74 C231.441,312.673 231.293,313.488 230.543,314.084 L230.548,314.111 C232.068,314.002 232.903,314.875 233.196,316.315 C233.638,318.482 231.932,319.573 230.038,319.958 L225.896,320.802 L225.896,320.802 Z" id="Fill-9" fill="#000"></path>
        <path d="M247.146,309.68 C247.769,311.39 249.486,312.179 251.025,311.618 C252.564,311.058 253.372,309.349 252.749,307.639 C252.251,306.271 250.533,305.48 248.994,306.041 C247.455,306.602 246.647,308.312 247.146,309.68 Z M255.428,306.647 C256.597,309.857 255.119,312.958 251.936,314.117 C248.753,315.277 245.627,313.854 244.458,310.644 C243.365,307.645 245.229,304.582 248.084,303.542 C250.938,302.503 254.335,303.648 255.428,306.647 L255.428,306.647 Z" id="Fill-10" fill="#000"></path>
        <path d="M269.979,297.536 L269.954,297.549 L270.582,301.041 L272.582,299.939 L269.979,297.536 Z M270.934,303.246 L271.182,305.205 L268.63,306.611 L267.091,295.4 L269.716,293.954 L278.297,301.284 L275.732,302.697 L274.246,301.421 L270.934,303.246 L270.934,303.246 Z" id="Fill-11" fill="#1A1919"></path>
        <path d="M287.761,287.856 L287.974,287.696 C288.688,287.156 289.391,286.415 288.699,285.499 C288.007,284.583 287.102,285.057 286.387,285.597 L286.175,285.757 L287.761,287.856 Z M296.085,288.866 L293.36,290.926 L288.847,289.247 L288.824,289.265 L291.271,292.503 L289.082,294.157 L282.72,285.735 L285.992,283.263 C287.656,282.006 289.518,281.846 290.876,283.644 C291.754,284.806 291.865,286.3 290.831,287.415 L296.085,288.866 L296.085,288.866 Z" id="Fill-12" fill="#1A1919"></path>
        <path d="M306.018,276.831 L306.452,276.395 C307.607,275.234 307.96,273.61 306.502,272.159 C305.163,270.827 303.53,270.959 302.287,272.209 L301.833,272.665 L306.018,276.831 Z M298.251,272.971 L300.996,270.213 C303.069,268.13 306.413,268.043 308.516,270.136 C310.619,272.229 310.537,275.584 308.474,277.657 L305.729,280.414 L298.251,272.971 L298.251,272.971 Z" id="Fill-13" fill="#1A1919"></path>
        <path d="M318.12,254.389 C317.481,254.539 316.87,254.885 316.466,255.422 C316.163,255.824 315.993,256.538 316.463,256.893 C316.955,257.263 317.592,256.813 318.001,256.525 L318.59,256.093 C319.821,255.18 321.096,254.72 322.461,255.747 C323.3,256.379 324.009,257.229 324.074,258.329 C324.137,259.41 323.706,260.471 323.065,261.321 C322.266,262.384 321.124,263.154 319.872,263.561 L318.813,261.29 C319.706,261.104 320.586,260.751 321.15,260.001 C321.538,259.486 321.693,258.745 321.101,258.299 C320.485,257.835 319.624,258.536 319.136,258.905 C317.709,259.986 316.669,260.622 315.035,259.393 C313.324,258.104 313.124,256.043 314.396,254.354 C315.036,253.504 316.088,252.666 317.077,252.236 L318.12,254.389" id="Fill-14" fill="#1A1919"></path>
        <polyline id="Fill-15" fill="#1A1919" points="334.258 226.285 333.747 227.424 338.098 229.375 337.626 230.426 333.275 228.475 332.765 229.613 331.903 229.228 333.396 225.898 334.258 226.285"></polyline>
        <polyline id="Fill-16" fill="#1A1919" points="334.231 223.909 338.271 224.683 338.278 224.668 334.859 222.377 335.505 220.8 340.791 222.965 340.391 223.942 336.171 222.214 336.164 222.229 339.999 224.896 339.66 225.727 335.055 224.938 335.049 224.953 339.269 226.682 338.869 227.658 333.583 225.494 334.231 223.909"></polyline>
        <path d="M87.508,204.067 C90.713,194.728 94.912,188.022 107.496,186.742 L187.319,177.208 C195.514,176.328 198.376,182.562 202.024,188.259 L208.015,174.604 L225.165,172.688 L234.293,182.069 L212.247,237.652 C218.261,237.807 220.71,237.652 224.28,227.375 L248.342,169.92 L264.167,168.029 L266.967,169.771 L268.536,167.507 L318.872,161.495 L327.18,169.291 L324.208,182.648 L283.543,230.206 L291.422,229.771 L299.473,239.605 L294.281,259.682 L243.167,265.333 L237.506,260.7 C237.289,263.25 235.255,265.931 230.667,267 L197.093,271.064 C192.417,271.48 187.267,266.715 182.978,262.534 L185.966,272.619 L163.973,275.247 L154.306,250.12 L143.063,251.462 L133.485,278.661 L121.769,280.288 L116.886,277.66 L115.259,281.565 L79.025,285.394 C72.728,281.241 66.094,273.812 66.094,273.812 C66.094,273.812 59.429,270.64 66.264,256.645 L87.508,204.067" id="Fill-17" fill="#1A1919"></path>
        <path d="M135.865,198.064 L113.384,200.857 C106.698,201.987 101.74,207.063 100.111,212.439 L85.994,249.072 C82.806,255.132 83.959,259.019 89.915,257.81 L114.205,254.908 L108.577,270.463 L77.576,274.165 C68.702,276.501 64.262,270.36 67.158,263.668 L92.443,201.031 C95.147,194.844 99.812,191.274 107.188,190.271 L140.479,186.295 L135.865,198.064" id="Fill-18" fill="#F8E538"></path>
        <path d="M114.897,251.993 L98.04,253.9 C98.04,253.9 94.51,253.484 99.04,245.104 C102.391,236.929 110.367,218.468 110.367,218.468 C114.958,209.392 118.103,211.743 130.168,210.767 L114.897,251.993" id="Fill-19" fill="#D8232A"></path>
        <path d="M143.989,185.995 L111.515,270.113 L125.706,268.416 L136.055,241.834 L154.909,240.441 L163.362,263.919 L176.277,262.377 L167.676,238.108 C173.205,236.915 176.833,234.006 178.791,226.435 L191.426,193.711 C195.181,182.843 191.491,179.453 177.385,181.887 L143.989,185.995" id="Fill-20" fill="#F8E538"></path>
        <path d="M200.944,230.914 C198.479,239.084 193.436,244.476 198.057,244.86 L217.117,242.742 C220.811,241.62 222.547,238.083 226.397,227.493 L248.723,173.241 L262.833,171.556 L236.448,238.5 C232.79,248.896 228.389,256.464 221.265,256.849 L187.186,260.700001 C172.938,260.705 182.922,245.245 185.618,235.618 L208.653,178.027 L222.306,176.397 L200.944,230.914" id="Fill-21" fill="#F8E538"></path>
        <polyline id="Fill-22" fill="#D8232A" points="272.416 191.503 278.993 190.679 259.867 212.83 268.08 190.078 272.416 191.503"></polyline>
        <polyline id="Fill-23" fill="#F8E538" points="269.504 170.883 316.681 165.248 312.25 176 258.258 237.702 287.858 234.167 284.051 249.504 235.895 255.256 241.558 239.57 293.256 179.373 264.068 182.677 269.504 170.883"></polyline>
        <path d="M153.443,196.01 C153.443,196.01 170.762,193.829 174.685,193.800834 C179,193.77 177.094,198.099 177.094,198.099 L169.247,218.101 C167.203,223.365 166.188,226.598 155.482,227.957 L140.359,229.656 L153.443,196.01" id="Fill-24" fill="#1A1919"></path>
        <path d="M158.334,208.749 C158.334,208.749 166.407,207.732 168.236,207.719917 C170.247,207.705 169.358,209.723 169.358,209.723 L165.701,219.046 C164.748,221.5 164.275,223.007 159.285,223.641 L152.235,224.433 L158.334,208.749" id="Fill-25" fill="#D8232A"></path>
        <path d="M85.675,91.32 C88.128,85.364 95.227,80.804 108.979,80.207 L139.102,76.609 L141.476,80.826 L145.765,75.813 L162.459,73.819 L168.128,79.464 L168.002,102.5 L179.823,71.626 L197.54,69.629 L205.499,76.5 L209.934,96.071 L220.931,66.716 L309.434,56.264 L313,59 L316.67,55.4 L331.575,53.62 L340.187,56.862 L330.505,148.753 L258.29,157.378 L255.167,154.465 L253.688,157.928 L235.794,160.065 L226.493,151.566 L249.35,86.428 L241.522,87.93 L212.326,162.868 L196.12,164.803 L187.75,156.125 L186.077,131.641 L174.575,167.5 L90.269,177.446 L81.696,168.793 C79.21,176.214 77.546,178.966 68.816,180.24 L30,185 L19.397,174.297 L27.901,156.994 L49.434,154.867 C55.022,154.414 59.123,153.607 62.391,147.711 L85.675,91.32" id="Fill-26" fill="#1A1919"></path>
        <path d="M133.896,92.077 L105.718,95.535 C100.291,96.591 99.036,100.829 95.895,106.858 L75.808,154.893 C71.979,163.338 65.737,167.995 57.997,168.76 L23.154,172.922 L29.71,159.312 L55.709,156.152 C61.039,154.626 62.277,152.378 66.014,145.701 L87.107,94.363 C90.717,86.683 95.616,84.021 104.401,83.071 L138.335,79.018 L133.896,92.077" id="Fill-27" fill="#F8E538"></path>
        <polyline id="Fill-28" fill="#D8232A" points="281.198 81.333 269.823 114.064 297.464 79.179 281.198 81.333"></polyline>
        <polyline id="Fill-29" fill="#F8E538" points="148.936 77.752 81.758 165.923 147.811 158.033 160.236 76.402 148.936 77.752"></polyline>
        <polyline id="Fill-30" fill="#F8E538" points="183.609 73.609 151.497 157.593 167.335 155.701 186.499 98.87 189.844 153.012 205.402 151.153 237.289 67.199 223.808 68.809 202.262 123.979 195.769 72.162 183.609 73.609"></polyline>
        <polyline id="Fill-31" fill="#F8E538" points="300.637 59.633 241.644 66.679 236.587 79.902 256.888 77.46 230.305 148.18 244.564 146.477 271.737 75.723 296.361 72.764 300.637 59.633"></polyline>
        <path d="M91.467,146.711 L103.31,115.842 C107.142,107.005 113.662,103.565 124.033,104.667 L91.467,146.711" id="Fill-32" fill="#D8232A"></path>
        <polyline id="Fill-33" fill="#1A1919" points="138.193 146.302 107.625 149.952 144.162 103.927 138.193 146.302"></polyline>
        <polyline id="Fill-34" fill="#D8232A" points="135.75 143.435 121.672 145.115 138.499 123.919 135.75 143.435"></polyline>
        <polyline id="Fill-35" fill="#F8E538" points="319.283 57.405 252.417 145.539 319.759 137.495 330.498 56.066 319.283 57.405"></polyline>
        <polyline id="Fill-36" fill="#1A1919" points="308.287 125.983 277.719 129.633 314.256 83.609 308.287 125.983"></polyline>
        <polyline id="Fill-37" fill="#000" points="305.844 123.116 291.766 124.797 308.593 103.601 305.844 123.116"></polyline>
    </g>
</svg>
